<svg xmlns="http://www.w3.org/2000/svg" viewBox="0 0 96 96">
  <defs><linearGradient id="a" x1="12" y1="8" x2="82" y2="88"><stop stop-color="#43F4C8"/><stop offset="1" stop-color="#6CA9FF"/></linearGradient></defs>
  <path d="M48 5 84 19v27c0 23-13 38-36 46C25 84 12 69 12 46V19z" fill="#08131c" stroke="url(#a)" stroke-width="5"/>
  <path d="M22 48c8-12 17-18 26-18s18 6 26 18c-8 12-17 18-26 18S30 60 22 48Z" fill="none" stroke="url(#a)" stroke-width="4"/>
  <circle cx="48" cy="48" r="9" fill="url(#a)"/><circle cx="48" cy="48" r="3" fill="#08131c"/>
  <path d="M48 30V20m18 19 8-5M30 39l-8-5M48 66v10" stroke="#43F4C8" stroke-width="3" stroke-linecap="round"/>
  <circle cx="48" cy="19" r="3" fill="#43F4C8"/><circle cx="75" cy="33" r="3" fill="#6CA9FF"/><circle cx="21" cy="33" r="3" fill="#43F4C8"/>
  <g fill="#F7D046"><rect x="76" y="53" width="5" height="5" rx="1"/><rect x="81" y="61" width="3" height="3" rx=".5"/></g>
</svg>
