<svg xmlns="http://www.w3.org/2000/svg" width="800" height="560" viewBox="0 0 800 560"><rect width="800" height="560" rx="28" fill="#09121b"/><rect x="34" y="34" width="732" height="72" rx="18" fill="#0f1e2a"/><circle cx="77" cy="70" r="16" fill="#43f4c8" fill-opacity=".6"/><rect x="110" y="58" width="140" height="10" rx="5" fill="#fff" fill-opacity=".5"/><rect x="110" y="77" width="88" height="7" rx="4" fill="#fff" fill-opacity=".12"/><g fill="#0f1e2a"><rect x="34" y="130" width="224" height="140" rx="18"/><rect x="288" y="130" width="224" height="140" rx="18"/><rect x="542" y="130" width="224" height="140" rx="18"/><rect x="34" y="298" width="478" height="228" rx="18"/><rect x="542" y="298" width="224" height="228" rx="18"/></g><path d="M70 470l60-75 65 30 78-95 75 72 112-58" fill="none" stroke="#43f4c8" stroke-width="5"/><text x="400" y="545" text-anchor="middle" font-family="Arial" font-size="14" fill="#6f8498">PLACEHOLDER — DASHBOARD ERP</text></svg>
