<svg xmlns="http://www.w3.org/2000/svg" width="800" height="560" viewBox="0 0 800 560"><rect width="800" height="560" rx="28" fill="#09121b"/><rect x="120" y="55" width="560" height="450" rx="22" fill="#0f1e2a" stroke="#fff" stroke-opacity=".08"/><rect x="165" y="105" width="180" height="18" rx="9" fill="#fff" fill-opacity=".7"/><rect x="165" y="142" width="310" height="8" rx="4" fill="#fff" fill-opacity=".12"/><circle cx="250" cy="272" r="72" fill="none" stroke="#43f4c8" stroke-opacity=".2" stroke-width="20"/><path d="M250 200a72 72 0 1 1-65 103" fill="none" stroke="#43f4c8" stroke-width="20" stroke-linecap="round"/><text x="250" y="282" text-anchor="middle" font-family="Arial" font-size="28" fill="#fff">94%</text><g fill="#fff" fill-opacity=".12"><rect x="370" y="215" width="250" height="12" rx="6"/><rect x="370" y="250" width="210" height="12" rx="6"/><rect x="370" y="285" width="235" height="12" rx="6"/><rect x="165" y="390" width="455" height="9" rx="5"/><rect x="165" y="418" width="390" height="9" rx="5"/></g><text x="400" y="480" text-anchor="middle" font-family="Arial" font-size="14" fill="#6f8498">PLACEHOLDER — RAPPORT INTELLIGENT</text></svg>
